# xmcd CD database file
#
# Track frame offsets:
#	150
#	28997
#	46842
#	72014
#	98029
#	130239
#	161003
#	206765
#
# Disc length: 3169 seconds
#
# Revision: 0
# Processed by: cddbd v1.5.2PL0 Copyright (c) Steve Scherf et al.
# Submitted via: CDex 1.51
#
DISCID=6b0c5f08
DTITLE=Vibraslap - Vibraslap
DYEAR=2010
DGENRE=Jazz
TTITLE0=Afrykanski/African
TTITLE1=Obudz Mnie/Walk Me Up
TTITLE2=Basso Bongo
TTITLE3=Na Przekor Plotkom/Against Gossip
TTITLE4=Andy
TTITLE5=Mimowolnie/Involuntarily
TTITLE6=Niebieska/Blue
TTITLE7=Bajao
EXTD=YEAR: 2010
EXTT0=
EXTT1=
EXTT2=
EXTT3=
EXTT4=
EXTT5=
EXTT6=
EXTT7=
PLAYORDER=
